<svg width="514" height="586" viewBox="0 0 514 586" fill="none" xmlns="http://www.w3.org/2000/svg">
<rect x="28" y="319" width="298" height="54" rx="13" fill="black"/>
<path d="M67 390H286V410H67V390Z" fill="black"/>
<rect y="427" width="353" height="159" rx="13" fill="black"/>
<path d="M280.125 302H250L290.356 231.882C290.356 231.882 295.223 120.532 332.986 75.761C369.554 32.4062 513 1 513 1C513 1 471.108 81.9574 448 105.5C424.892 129.043 364.816 169.434 364.816 169.434H455.759C455.759 169.434 411.341 206.259 386.415 223.118C359.074 241.61 307.976 255.985 307.976 255.985L280.125 302Z" fill="black" stroke="black"/>
</svg>
